<svg id="Capa_1" data-name="Capa 1" xmlns="http://www.w3.org/2000/svg" viewBox="0 0 169.29 38.05"><defs><style>.cls-1{fill:#fff;}</style></defs><title>logo_blanco</title><path class="cls-1" d="M26.26,0h-.44l-2,0H.66A.67.67,0,0,0,0,.66V4.33c0,4,2.84,6.24,8,6.24l18.26,0a3.5,3.5,0,1,1,0,7H5.78a.64.64,0,0,0-.63.49L.3,37.23a.65.65,0,0,0,.12.56.64.64,0,0,0,.51.26h6.5A4.11,4.11,0,0,0,11.31,35l1.91-7h13a14,14,0,1,0,0-28Z"/><path class="cls-1" d="M169.23,16.59a.25.25,0,0,0-.21-.1h-3.11a.28.28,0,0,0-.28.22s-.11.6-.19,1h0a4.15,4.15,0,0,0-2.89-1.44,6.93,6.93,0,0,0-2.89.45,7.93,7.93,0,0,0-5.07,7.48,4.73,4.73,0,0,0,4.76,4.94,5.66,5.66,0,0,0,4.1-1.43c-.07.31-.15.71-.2,1a.27.27,0,0,0,.06.23.28.28,0,0,0,.21.1h3.11a.28.28,0,0,0,.27-.22l2.39-12A.31.31,0,0,0,169.23,16.59Zm-4.82,6.18A3.71,3.71,0,0,1,164,24a3.49,3.49,0,0,1-.73,1,3.23,3.23,0,0,1-1,.62,2.93,2.93,0,0,1-2.12.05,2.09,2.09,0,0,1-.73-.51,2.06,2.06,0,0,1-.46-.79,3.06,3.06,0,0,1-.12-1.07,3.8,3.8,0,0,1,.31-1.34,3.66,3.66,0,0,1,.72-1.11,3.3,3.3,0,0,1,1-.74,2.82,2.82,0,0,1,1.25-.28,2.33,2.33,0,0,1,1,.22,2,2,0,0,1,.76.6,2.08,2.08,0,0,1,.42.94A3.28,3.28,0,0,1,164.41,22.77Z"/><path class="cls-1" d="M100.55,10.09A2.53,2.53,0,0,0,98,12.7a1.79,1.79,0,0,0,2,1.92A2.53,2.53,0,0,0,102.55,12,1.79,1.79,0,0,0,100.55,10.09Z"/><path class="cls-1" d="M96,11.17a.26.26,0,0,0-.22-.1H92.63a.27.27,0,0,0-.28.23S91.12,17.41,91,17.84a4.79,4.79,0,0,0-4.33-2.29c-3.88,0-6.7,3.13-6.7,7.43,0,3.55,2.13,5.93,5.3,5.93a5.09,5.09,0,0,0,3.86-1.72c-.07.31-.13.63-.2,1a.28.28,0,0,0,.06.23.29.29,0,0,0,.22.1h3.19a.28.28,0,0,0,.27-.23L96.1,11.4A.28.28,0,0,0,96,11.17Zm-6.13,11a4.26,4.26,0,0,1-.43,1.26,4,4,0,0,1-.76,1,3.22,3.22,0,0,1-1,.65,3,3,0,0,1-2.21.05,2.09,2.09,0,0,1-1.25-1.36,3,3,0,0,1-.13-1.11,4.16,4.16,0,0,1,.33-1.41,4,4,0,0,1,.75-1.16,3.47,3.47,0,0,1,1.08-.78,3.09,3.09,0,0,1,1.31-.29,2.72,2.72,0,0,1,1.09.22,2.27,2.27,0,0,1,.8.63,2.48,2.48,0,0,1,.44,1A3.6,3.6,0,0,1,89.91,22.22Z"/><path class="cls-1" d="M72.75,15.55a7.13,7.13,0,0,0-7.36,7.38c0,3.69,2.48,6,6.47,6a8.31,8.31,0,0,0,4.88-1.52.28.28,0,0,0,.05-.42l-2-2a.29.29,0,0,0-.33,0,5.34,5.34,0,0,1-2.56.66c-1.83,0-2.89-.84-2.91-2.29l8.94,0a.29.29,0,0,0,.28-.22,10.35,10.35,0,0,0,.32-2.27C78.57,17.54,76.34,15.55,72.75,15.55ZM69.43,20.5a3.24,3.24,0,0,1,3.24-2.15c1.61,0,2.43.74,2.48,2.16Z"/><path class="cls-1" d="M101.05,16.93h-3.3a.28.28,0,0,0-.29.21L95.23,28.2a.29.29,0,0,0,.06.22.33.33,0,0,0,.23.1h3.3a.29.29,0,0,0,.29-.22l2.23-11.06a.29.29,0,0,0-.06-.22A.32.32,0,0,0,101.05,16.93Z"/><path class="cls-1" d="M59,11.07H52.34a.27.27,0,0,0-.28.23L48.7,28.08a.28.28,0,0,0,.07.24.29.29,0,0,0,.22.1h1.84a2.5,2.5,0,0,0,2.44-2c.33-1.65.74-3.72.75-3.79l3.88,0c4.45,0,7.22-2.38,7.22-6.21C65.12,13.07,62.82,11.07,59,11.07ZM58,19H54.74c0-.1.85-4.2.88-4.37l3.05,0c1.46,0,2.26.68,2.26,1.92C60.93,18.12,59.87,19,58,19Z"/><path class="cls-1" d="M125.49,15.55A7.17,7.17,0,0,0,118,22.9c0,3.65,2.5,6,6.36,6a7.18,7.18,0,0,0,7.49-7.36C131.86,17.91,129.36,15.55,125.49,15.55Zm-.86,9.59A2.34,2.34,0,0,1,122,22.67a3.19,3.19,0,0,1,3.23-3.35,2.34,2.34,0,0,1,2.62,2.47A3.19,3.19,0,0,1,124.63,25.14Z"/><path class="cls-1" d="M118.48,11.17a.26.26,0,0,0-.22-.1h-3.19a.28.28,0,0,0-.28.23s-1.23,6.11-1.31,6.54a4.77,4.77,0,0,0-4.32-2.29c-3.89,0-6.71,3.13-6.71,7.43,0,3.55,2.13,5.93,5.3,5.93a5.09,5.09,0,0,0,3.86-1.72c-.07.31-.13.63-.2,1a.28.28,0,0,0,.06.23.32.32,0,0,0,.22.1h3.19a.3.3,0,0,0,.28-.23l3.38-16.89A.28.28,0,0,0,118.48,11.17Zm-6.08,11a4,4,0,0,1-1.19,2.26,3.18,3.18,0,0,1-1,.65,3,3,0,0,1-2.22.05,2.18,2.18,0,0,1-.77-.52,2.31,2.31,0,0,1-.48-.84,3,3,0,0,1-.12-1.11,3.92,3.92,0,0,1,.32-1.41,4,4,0,0,1,.75-1.16,3.51,3.51,0,0,1,1.09-.78,3,3,0,0,1,1.3-.29,2.73,2.73,0,0,1,1.1.22,2.15,2.15,0,0,1,.79.63,2.35,2.35,0,0,1,.44,1A3.2,3.2,0,0,1,112.4,22.22Z"/><path class="cls-1" d="M142.39,16.52a9.88,9.88,0,0,0-4.94-.95c-2.74.24-4.32,1.88-4.11,4.27a4.21,4.21,0,0,0,2.53,3.39l1.74.9c.71.38.77.56.79.79,0,.51-.54.64-.9.67a6.43,6.43,0,0,1-3.82-1.19.29.29,0,0,0-.22,0,.34.34,0,0,0-.18.13L131.89,27a.28.28,0,0,0,.09.37,8.75,8.75,0,0,0,5.76,1.53c3-.27,4.67-1.88,4.45-4.43-.13-1.54-.87-2.51-2.55-3.36l-1.57-.79c-.92-.5-1-.63-1-.87s-.05-.54.83-.62a6.44,6.44,0,0,1,3.13.72.28.28,0,0,0,.22,0,.26.26,0,0,0,.16-.15l1.1-2.48A.28.28,0,0,0,142.39,16.52Z"/><path class="cls-1" d="M159.48,11.24a.32.32,0,0,0-.28-.17h-4.51a.29.29,0,0,0-.25.14s-4.48,6.35-4.8,7c-.08-.57-2.28-6.86-2.28-6.86a.31.31,0,0,0-.3-.23h-3.95a.31.31,0,0,0-.29.41L147,22.1l-1.26,6.16a.36.36,0,0,0,.07.26.3.3,0,0,0,.24.11h2a2.35,2.35,0,0,0,2.31-1.91l.89-4.52,8.22-10.64A.31.31,0,0,0,159.48,11.24Z"/></svg>